<svg xmlns="http://www.w3.org/2000/svg" width="24" height="24" viewBox="0 0 24 24">
  <path  d="M3.92399915,11.7649995 C3.77764399,11.9991677 3.4691688,12.0703543 3.23500053,11.9239992 C3.00083226,11.777644 2.92964568,11.4691688 3.07600085,11.2350005 C4.72258653,8.60046343 7.61021891,7 10.7169906,7 L11,7 C15.7839371,7 19.7251234,10.7427037 19.9862823,15.4990868 C19.9927927,15.617659 19.9970334,16.2631224 19.9999986,17.4988002 C20.0006612,17.7749418 19.7773414,17.9993359 19.5011998,17.9999986 C19.2250582,18.0006612 19.0006641,17.7773414 19.0000014,17.5011998 C18.9971538,16.3145297 18.9927506,15.6443258 18.9877863,15.5539113 C18.7556998,11.3270125 15.2522496,8 11,8 L10.7169906,8 C7.95500894,8 5.38784649,9.42284374 3.92399915,11.7649995 Z M8.5,11 C8.77614237,11 9,11.2238576 9,11.5 C9,11.7761424 8.77614237,12 8.5,12 L3.5,12 C3.22385763,12 3,11.7761424 3,11.5 L3,6.5 C3,6.22385763 3.22385763,6 3.5,6 C3.77614237,6 4,6.22385763 4,6.5 L4,11 L8.5,11 Z"/>
</svg>
